PathFileType	4	(X/Y/Z)	./resultDataOpenSim/trcMotMarkerGrf/sub10/qtm-01-05.trc
DataRate	CameraRate	NumFrames	NumMarkers	Units	OrigDataRate	OrigDataStartFrame	OrigNumFrames
250.000000	250.000000	13	24	m	250.000000	427	487
Frame#	Time	L.Toe.Tip			R.Toe.Tip			L.Ankle.Lat			R.Ankle.Lat			L.Ankle.Med			R.Ankle.Med			L.Heel			R.Heel			L.Knee.Lat			R.Knee.Lat			L.Knee.Med			R.Knee.Med			L.Thigh.Upper			R.Thigh.Upper			L.ASIS			R.ASIS			V.Sacral			L.Acromium			R.Acromium			C7			L.Elbow			R.Elbow			L.Wrist.Lat			R.Wrist.Lat
		X1	Y1	Z1	X2	Y2	Z2	X3	Y3	Z3	X4	Y4	Z4	X5	Y5	Z5	X6	Y6	Z6	X7	Y7	Z7	X8	Y8	Z8	X9	Y9	Z9	X10	Y10	Z10	X11	Y11	Z11	X12	Y12	Z12	X13	Y13	Z13	X14	Y14	Z14	X15	Y15	Z15	X16	Y16	Z16	X17	Y17	Z17	X18	Y18	Z18	X19	Y19	Z19	X20	Y20	Z20	X21	Y21	Z21	X22	Y22	Z22	X23	Y23	Z23	X24	Y24	Z24

427	1.704	1.6355124	0.080801779	-0.18866378	0.80032493	0.039207917	0.011061437	1.504551	0.068101146	-0.21220361	0.69392971	0.12855255	0.038314071	1.5106443	0.091187909	-0.13000667	0.72678583	0.1343958	-0.04521795	1.4496023	0.024383112	-0.1687036	0.63898403	0.13195071	-0.0091897911	1.4009728	0.44595336	-0.22528687	0.96179252	0.42402189	0.062744691	1.418815	0.42159486	-0.10628907	1.0020246	0.40934172	-0.059387865	1.2503967	0.80015999	-0.26356006	1.0733061	0.81404191	0.087181538	1.2706704	0.90622281	-0.17318989	1.1785319	0.8944796	0.064989171	1.040976	0.89675388	-0.14060959	1.1322139	1.3618362	-0.24094573	1.095435	1.3555649	0.08536932	1.0232658	1.3802867	-0.091824394	1.0124506	1.0421271	-0.27061725	1.1636949	1.0066188	0.1525935	1.0527345	0.81597018	-0.34719879	1.4115143	0.95897162	0.14974646
428	1.708	1.6390814	0.075735003	-0.18881285	0.80110364	0.039196141	0.010736663	1.5068295	0.067520445	-0.21250697	0.69744624	0.13183634	0.037521172	1.5138183	0.090586395	-0.13025352	0.73105774	0.13659346	-0.045674386	1.450667	0.025594067	-0.16877028	0.64318175	0.13630166	-0.010348683	1.4074693	0.44586515	-0.22642418	0.96893234	0.42376058	0.062106133	1.4261942	0.42156618	-0.10734761	1.0094477	0.40850495	-0.059787484	1.2584427	0.80083968	-0.26482303	1.0820027	0.81239096	0.086632383	1.277951	0.90664062	-0.17421243	1.1864968	0.89363889	0.064060822	1.0483478	0.89670422	-0.1412011	1.1387527	1.3615978	-0.24194308	1.1017471	1.3553876	0.084377388	1.0295642	1.3797788	-0.092960953	1.0197219	1.0416187	-0.27146271	1.1696813	1.006071	0.15082565	1.0605251	0.81547717	-0.34813439	1.4175764	0.95892263	0.1479248
429	1.712	1.6427372	0.071342665	-0.18816827	0.80191829	0.039152708	0.010379349	1.5090338	0.06695457	-0.21286364	0.70124918	0.13510737	0.036732864	1.5165995	0.09002591	-0.13055084	0.73565791	0.13870749	-0.046116691	1.4517836	0.026725005	-0.16903571	0.64772538	0.14064925	-0.011598362	1.4140826	0.44603473	-0.22752179	0.9762332	0.42351696	0.061455536	1.433581	0.42179249	-0.10836696	1.0170606	0.40762898	-0.060172971	1.2665146	0.80174936	-0.26610136	1.0909906	0.81051357	0.086249811	1.2852245	0.90712251	-0.17531279	1.1945097	0.89279845	0.063088257	1.0557101	0.89672572	-0.14177769	1.1452713	1.3614109	-0.24295238	1.1081122	1.3552932	0.08339012	1.03589	1.3793345	-0.094120495	1.0269114	1.0412091	-0.27248652	1.175613	1.0055437	0.14901655	1.0684421	0.8150117	-0.34906733	1.42354	0.95878203	0.14613329
430	1.716	1.6460333	0.067402118	-0.18722715	0.80276179	0.039077178	0.0099731584	1.5112093	0.066449988	-0.21324701	0.70533681	0.13833451	0.035940797	1.51913	0.089567578	-0.13087541	0.74061156	0.14072087	-0.046559441	1.4529143	0.027820589	-0.16941928	0.65262921	0.14497469	-0.012939041	1.4208641	0.44645895	-0.2285918	0.98368276	0.42328852	0.060811138	1.4409362	0.42234267	-0.10930775	1.0248746	0.40671954	-0.060528211	1.2745932	0.80290639	-0.26738143	1.0999494	0.80869066	0.085822287	1.2924997	0.90769171	-0.17647861	1.202613	0.89197207	0.062018643	1.0630906	0.89685312	-0.14232364	1.1517624	1.3612833	-0.24397247	1.1145618	1.3552706	0.082404347	1.0422711	1.3789748	-0.095292543	1.0339832	1.0408964	-0.27373127	1.1814729	1.0050599	0.14716753	1.0764908	0.81458636	-0.34999143	1.429391	0.95855207	0.14438721
431	1.72	1.6486718	0.06362619	-0.18631072	0.8036464	0.038978856	0.0095217385	1.5133421	0.066032948	-0.21361347	0.70971091	0.14148511	0.03511851	1.5215349	0.089250851	-0.13121155	0.74592843	0.1426237	-0.047011743	1.4540152	0.028896605	-0.16988275	0.65791474	0.14925857	-0.014375542	1.4278065	0.44711703	-0.22963865	0.99125537	0.4230661	0.060187507	1.4481695	0.42321087	-0.11013115	1.0328955	0.40578136	-0.060833499	1.2826598	0.80430225	-0.26867434	1.1086776	0.80711914	0.085226997	1.2997854	0.90837024	-0.17769599	1.2108002	0.89116294	0.060834243	1.0705038	0.89706599	-0.14282611	1.1582214	1.3612145	-0.24500007	1.1210769	1.3553193	0.081421446	1.0487223	1.3787247	-0.09645092	1.0409772	1.0406329	-0.27515708	1.1872754	1.0046405	0.1452733	1.0846729	0.81420893	-0.35090226	1.4351224	0.95822939	0.14269075
432	1.724	1.6507592	0.059820446	-0.18541864	0.80461165	0.038872271	0.0090684293	1.5153963	0.065684723	-0.21392767	0.71438089	0.14453974	0.034243347	1.5238273	0.089056558	-0.13153256	0.75160188	0.14440889	-0.047468205	1.4550687	0.029939713	-0.17042865	0.66359532	0.15348044	-0.015907919	1.4348616	0.44796643	-0.23065249	0.99894618	0.42283978	0.059588761	1.4552105	0.42433677	-0.11082994	1.041132	0.40481352	-0.061075124	1.2906819	0.80590694	-0.26999619	1.1172356	0.80577612	0.084492481	1.3070855	0.90916399	-0.17895788	1.2190631	0.8903694	0.059522085	1.0779459	0.89732919	-0.14328736	1.1646462	1.361194	-0.24602727	1.1276191	1.3554409	0.080445684	1.0552465	1.3785855	-0.097556904	1.0480258	1.0403661	-0.27662098	1.1930766	1.0042858	0.14332419	1.0929875	0.81388564	-0.35179919	1.4407394	0.95780777	0.14103234
433	1.728	1.6525844	0.056051714	-0.18439291	0.80570452	0.038767182	0.0086689286	1.5173561	0.065378317	-0.21416118	0.71935442	0.14752396	0.033317595	1.5259443	0.088933923	-0.13178191	0.75761731	0.14606481	-0.047903047	1.4560862	0.030924861	-0.17105267	0.66967757	0.1576357	-0.017533362	1.4419553	0.44894022	-0.23161208	1.0067864	0.42260127	0.059012274	1.4620429	0.42563975	-0.11143013	1.0495942	0.40380378	-0.061248117	1.2986154	0.80768036	-0.27135271	1.1258177	0.80454352	0.083681695	1.3144012	0.91006401	-0.18025357	1.2273908	0.88959307	0.058078105	1.085394	0.89761636	-0.1437024	1.171037	1.3612085	-0.24704272	1.1341871	1.3556222	0.079475495	1.0618359	1.3785335	-0.098587786	1.0552376	1.0400733	-0.27799022	1.1989268	1.0039744	0.14132486	1.1014359	0.81362072	-0.35268295	1.4462543	0.9572837	0.13939649
434	1.732	1.6543724	0.052606065	-0.18319781	0.80694451	0.038658115	0.0083461615	1.5192241	0.065116394	-0.21427756	0.72463776	0.15048459	0.032361982	1.5278706	0.088850411	-0.13188423	0.76396091	0.14757231	-0.048264628	1.4570822	0.031822063	-0.17168876	0.67616001	0.16173624	-0.019246306	1.4490022	0.4499571	-0.23249378	1.0148487	0.42234155	0.058459606	1.4686792	0.42704041	-0.11196859	1.058284	0.40272703	-0.061351475	1.3064217	0.80957578	-0.27273626	1.1345798	0.80332097	0.082826887	1.3217278	0.91106231	-0.18154953	1.2357505	0.88883834	0.056522712	1.092816	0.8979409	-0.14404821	1.1773965	1.3612502	-0.24803758	1.1408092	1.3558478	0.078500416	1.0684722	1.3785372	-0.099549281	1.0626121	1.0397503	-0.27922787	1.2047705	1.0036953	0.13931999	1.1100208	0.81341081	-0.35355896	1.4516816	0.95665801	0.13777481
435	1.736	1.656193	0.049750757	-0.18204291	0.80830313	0.038522312	0.0080801264	1.5209874	0.064927025	-0.21423443	0.7302282	0.1534432	0.031401016	1.5296783	0.088799205	-0.13178497	0.77061589	0.14891679	-0.04848402	1.4580473	0.03260438	-0.17220309	0.68301493	0.16579229	-0.021028228	1.4559141	0.45094071	-0.23327739	1.0232543	0.42203658	0.057952659	1.4751235	0.42846625	-0.11246955	1.0671941	0.40155514	-0.061381851	1.3140921	0.81153528	-0.27413464	1.1435615	0.80203879	0.081951492	1.3290411	0.91216151	-0.18278952	1.2441015	0.88810552	0.054886742	1.1001771	0.89835622	-0.1442985	1.1837283	1.3613176	-0.24901119	1.1474898	1.3561131	0.077511591	1.07513	1.3785699	-0.10045308	1.0700819	1.039395	-0.28035915	1.2104065	1.0034763	0.13739132	1.1187405	0.81324655	-0.35443663	1.4570387	0.95593651	0.13616938
436	1.74	1.6579693	0.047542677	-0.18123525	0.80970961	0.038331817	0.0078289595	1.5225921	0.064829074	-0.21400925	0.73609318	0.15638996	0.030461908	1.5314322	0.088765144	-0.13148539	0.77754412	0.15010932	-0.048513694	1.4589422	0.033254436	-0.17245799	0.6901761	0.16980428	-0.022837673	1.4626053	0.45183818	-0.23394716	1.0321141	0.42165113	0.057532184	1.4813656	0.42984585	-0.11293435	1.0763191	0.40026578	-0.061331548	1.3216545	0.8134931	-0.27554257	1.1527099	0.80066337	0.081077144	1.3363028	0.91336545	-0.1839273	1.2524126	0.88738812	0.053194575	1.1074338	0.89887293	-0.14443283	1.1900337	1.3614053	-0.24996658	1.1541966	1.3564176	0.076510317	1.0817849	1.3786145	-0.10130014	1.0775854	1.0390153	-0.28141597	1.2156443	1.003362	0.13559242	1.1275861	0.81311924	-0.35532167	1.4623393	0.95512814	0.13459031
437	1.744	1.6595573	0.045858352	-0.18089657	0.8110849	0.038079549	0.0075576149	1.5239519	0.064810701	-0.21363	0.74216736	0.15930994	0.029568913	1.5330747	0.088705809	-0.13104254	0.78467701	0.15119382	-0.048362475	1.4597109	0.033758767	-0.17240604	0.69755933	0.17376886	-0.024614931	1.4690012	0.45262395	-0.23449186	1.041354	0.42118968	0.057203915	1.4873932	0.43110101	-0.1133483	1.0856603	0.39883922	-0.061193944	1.3291418	0.81539051	-0.27696222	1.1619667	0.79920329	0.08020643	1.3434898	0.91466788	-0.18497471	1.2606665	0.88667732	0.051461288	1.1145516	0.89943054	-0.14446394	1.1963119	1.3615006	-0.25090311	1.1608988	1.3567563	0.075503989	1.0884196	1.3786619	-0.10209171	1.0850959	1.0386277	-0.28242553	1.2205404	1.0033516	0.13387974	1.1365471	0.81302333	-0.35621508	1.4675748	0.95423794	0.13304956
438	1.748	1.6608445	0.044558338	-0.1808362	0.8123979	0.037815949	0.007260977	1.5249868	0.064839579	-0.21317437	0.74837558	0.16221382	0.028723625	1.5344374	0.088581114	-0.13053663	0.79193663	0.15223576	-0.048083636	1.4603088	0.034109785	-0.17213309	0.70511295	0.17769317	-0.026304553	1.4750509	0.45328696	-0.23490738	1.0506176	0.42072355	0.056880811	1.4932005	0.43215765	-0.11369732	1.0952169	0.39725318	-0.060965907	1.3365598	0.81718746	-0.2783939	1.1712847	0.79769018	0.079324533	1.3506069	0.91605252	-0.18600133	1.2688643	0.88596452	0.049688478	1.1215609	0.89996985	-0.14446836	1.2025615	1.3615943	-0.25181768	1.1675925	1.357115	0.074498694	1.0950206	1.3787043	-0.10284299	1.0926124	1.0382391	-0.28341795	1.2253786	1.0033791	0.13214731	1.1456162	0.81295611	-0.35711683	1.4727111	0.95326266	0.13155466
439	1.752	1.6618029	0.043566823	-0.18071725	0.81370769	0.037669167	0.0069570714	1.5256659	0.064887085	-0.21272729	0.75465665	0.16514501	0.027895192	1.5353928	0.088396644	-0.13003565	0.79926733	0.15330667	-0.04774708	1.4607273	0.034320026	-0.17180112	0.71283986	0.1816076	-0.027876294	1.4807387	0.45381843	-0.23519884	1.0594942	0.42032101	0.056430609	1.498792	0.43297984	-0.11398647	1.1049809	0.39548349	-0.060639316	1.3438903	0.81886618	-0.27983178	1.1805551	0.79615228	0.078419381	1.3576661	0.9174919	-0.18706976	1.2770339	0.88523953	0.047853284	1.1285685	0.90047226	-0.14454456	1.2087836	1.3616879	-0.25270952	1.1742887	1.3574719	0.073497859	1.1015715	1.3787284	-0.10357882	1.1001395	1.0378418	-0.28442371	1.2303879	1.0033758	0.13032779	1.1547887	0.8129154	-0.35802468	1.4777239	0.95219461	0.13010395
